# xmcd
#
# Track frame offsets:
#	150
#	15998
#	42884
#	65227
#	88138
#	119901
#	138759
#	162752
#	182777
#	205216
#	229465
#	247729
#
# Disc length: 3602 seconds
#
# Revision: 11
# Processed by: cddbd v1.5.2PL0 Copyright (c) Steve Scherf et al.
# Submitted via: EasyCDDAExtractor 16.0.6.1
#
DISCID=a50e100c
DTITLE=Etta James - JB-139 Life, Love and The Blues
DYEAR=1998
DGENRE=Blues
TTITLE0=Born Under A Bad Sign
TTITLE1=I Want To Ta-Ta You Baby
TTITLE2=Here I Am (Come And Take Me)
TTITLE3=Running Out Of Lies
TTITLE4=Inner City Blues (Make Me Wanna Holler)
TTITLE5=Spoonful
TTITLE6=Life, Love and The Blues
TTITLE7=Hoochie Coochie Gal
TTITLE8=Cheating In The Next Room
TTITLE9=If You Want Me To Stay
TTITLE10=The Love You Save (May Be Your Own)
TTITLE11=I'll Take Care Of You
EXTD=
EXTT0=
EXTT1=
EXTT2=
EXTT3=
EXTT4=
EXTT5=
EXTT6=
EXTT7=
EXTT8=
EXTT9=
EXTT10=
EXTT11=
PLAYORDER=
